<svg xmlns="http://www.w3.org/2000/svg" xmlns:xlink="http://www.w3.org/1999/xlink" width="20" height="20" version="1.1" viewBox="0 0 20 20"><title>icons / user copy</title><desc>Created with Sketch.</desc><defs><path id="path-1" d="M10.0004006,10 C7.78988483,10 6,8.21007637 6,6 C6,3.78992363 7.78988483,2 10.0004006,2 C12.2101152,2 14,3.78992363 14,6 C14,8.21007637 12.2101152,10 10.0004006,10 Z M3,16 C3,12.8780488 5.99502275,11 10,11 C14.0049772,11 17,12.8780488 17,16 C17,17.1045695 16.1045695,18 15,18 L5,18 C3.8954305,18 3,17.1045695 3,16 Z"/></defs><g id="Icons" fill="none" fill-rule="evenodd" stroke="none" stroke-width="1"><rect id="Rectangle" width="20" height="20" x="0" y="0"/><g id="icons-/-user-copy"><mask id="mask-2" fill="#fff"><use xlink:href="#path-1"/></mask><use id="Combined-Shape" fill="#4A4A4A" xlink:href="#path-1"/></g></g></svg>